<?xml version="1.0" standalone="no"?>
<!DOCTYPE svg PUBLIC "-//W3C//DTD SVG 20010904//EN"
 "http://www.w3.org/TR/2001/REC-SVG-20010904/DTD/svg10.dtd">
<svg version="1.0" xmlns="http://www.w3.org/2000/svg"
 width="1032.000000pt" height="1032.000000pt" viewBox="0 0 1032.000000 1032.000000"
 preserveAspectRatio="xMidYMid meet">
<metadata>
Created by potrace 1.14, written by Peter Selinger 2001-2017
</metadata>
<g transform="translate(0.000000,1032.000000) scale(0.100000,-0.100000)"
fill="#000000" stroke="none">
<path d="M4939 10316 c-2 -2 -55 -7 -117 -10 -61 -4 -118 -8 -125 -11 -6 -2
-41 -6 -77 -10 -561 -52 -1359 -308 -1880 -602 -19 -11 -66 -37 -105 -58 -511
-284 -1049 -743 -1445 -1234 -382 -473 -678 -1028 -859 -1610 -45 -142 -123
-442 -135 -516 -3 -16 -12 -70 -21 -120 -9 -49 -18 -101 -20 -115 -47 -293
-58 -450 -59 -830 -1 -304 6 -534 19 -614 2 -12 6 -43 10 -71 92 -774 324
-1459 702 -2075 216 -352 421 -610 732 -920 197 -197 335 -317 546 -475 634
-476 1416 -818 2195 -960 102 -18 210 -36 240 -40 30 -3 71 -8 90 -10 60 -7
132 -14 218 -21 109 -8 504 -8 612 0 167 13 206 17 295 27 682 77 1371 294
1940 612 385 215 691 436 1009 730 54 51 102 92 105 92 3 -1 38 -6 78 -14 293
-52 597 47 783 256 147 165 222 361 222 578 0 565 -534 967 -1082 814 -132
-37 -253 -108 -356 -206 -303 -293 -342 -787 -88 -1116 24 -31 44 -61 44 -66
0 -5 -57 -59 -127 -120 -570 -495 -1281 -856 -2018 -1025 -120 -27 -353 -71
-425 -80 -25 -3 -70 -8 -100 -11 -30 -4 -68 -8 -85 -10 -227 -27 -773 -27
-965 -1 -19 3 -57 8 -85 11 -41 5 -146 22 -250 39 -147 25 -431 101 -629 168
-911 307 -1715 879 -2272 1614 -536 707 -851 1572 -911 2499 -14 221 -7 755
11 850 2 11 7 52 10 90 9 93 32 242 63 400 136 707 452 1399 887 1945 582 729
1380 1275 2286 1564 279 89 654 171 881 192 41 3 76 8 79 9 14 8 288 19 470
19 317 0 546 -16 885 -60 318 -41 778 -159 1095 -281 737 -283 1317 -727 1697
-1298 155 -233 284 -515 348 -762 120 -457 37 -971 -219 -1367 -216 -334 -539
-584 -912 -704 -201 -65 -453 -105 -638 -100 l-119 3 -3 40 c-15 213 -44 359
-102 515 -109 296 -308 537 -583 709 -196 122 -526 239 -779 275 -38 5 -163
21 -245 32 -27 3 -162 7 -300 9 -230 2 -351 -2 -524 -20 -36 -4 -68 -7 -71 -7
-20 -1 -27 8 -39 50 -60 202 -258 390 -476 448 -75 20 -250 23 -325 5 -223
-54 -415 -229 -490 -445 -94 -274 1 -583 234 -760 337 -255 826 -143 1013 233
l38 77 110 12 c355 39 712 34 1000 -14 458 -75 742 -224 948 -498 86 -114 177
-350 193 -500 3 -28 7 -61 10 -74 6 -32 6 -277 -2 -342 -53 -494 -361 -828
-894 -969 -171 -46 -283 -64 -520 -86 -68 -6 -507 -7 -575 0 -27 2 -84 7 -125
10 -109 9 -106 7 -113 73 -25 237 -197 454 -437 550 -266 106 -596 11 -774
-222 -163 -214 -185 -497 -58 -741 52 -100 172 -218 278 -273 114 -58 233 -86
349 -79 204 11 411 122 516 276 39 58 27 56 204 37 351 -36 834 -24 1121 29
497 92 861 283 1103 579 130 159 234 375 271 563 l12 58 171 2 c349 5 625 60
924 184 389 162 726 441 964 798 77 115 192 341 234 460 55 157 104 378 121
546 11 105 7 341 -6 447 -49 390 -214 811 -465 1189 -189 285 -456 577 -725
795 -627 508 -1449 844 -2392 978 -95 13 -202 27 -238 30 -36 3 -92 9 -125 12
-160 15 -304 20 -566 22 -157 1 -288 0 -290 -2z"/>
</g>
</svg>
